<svg width="104" height="16" viewBox="0 0 104 16" fill="none" xmlns="http://www.w3.org/2000/svg">
<path d="M0.264205 15V0.454545H6.00284C7.10606 0.454545 8.04593 0.665246 8.82244 1.08665C9.59896 1.50331 10.1908 2.08333 10.598 2.8267C11.0099 3.56534 11.2159 4.41761 11.2159 5.38352C11.2159 6.34943 11.0076 7.2017 10.5909 7.94034C10.1742 8.67898 9.57055 9.25426 8.77983 9.66619C7.99384 10.0781 7.04214 10.2841 5.92472 10.2841H2.26705V7.8196H5.42756C6.01941 7.8196 6.5071 7.7178 6.89062 7.5142C7.27888 7.30587 7.56771 7.01941 7.7571 6.65483C7.95123 6.28551 8.0483 5.86174 8.0483 5.38352C8.0483 4.90057 7.95123 4.47917 7.7571 4.11932C7.56771 3.75473 7.27888 3.47301 6.89062 3.27415C6.50237 3.07055 6.00994 2.96875 5.41335 2.96875H3.33949V15H0.264205ZM13.2134 15V0.454545H16.2887V12.4645H22.5245V15H13.2134ZM27.4393 15H24.1438L29.1651 0.454545H33.1282L38.1424 15H34.8469L31.2035 3.77841H31.0898L27.4393 15ZM27.2333 9.28267H35.0174V11.6832H27.2333V9.28267ZM37.5565 0.454545H41.0011L44.3178 6.71875H44.4599L47.7766 0.454545H51.2212L45.9158 9.85795V15H42.8619V9.85795L37.5565 0.454545ZM55.7844 0.454545L58.7177 5.41193H58.8313L61.7788 0.454545H65.2518L60.8129 7.72727L65.3512 15H61.8143L58.8313 10.0355H58.7177L55.7347 15H52.212L56.7646 7.72727L52.2972 0.454545H55.7844ZM79.348 5.54688H76.2372C76.1804 5.14441 76.0644 4.78693 75.8892 4.47443C75.714 4.1572 75.4891 3.88731 75.2145 3.66477C74.9399 3.44223 74.6226 3.27178 74.2628 3.15341C73.9077 3.03504 73.5218 2.97585 73.1051 2.97585C72.3523 2.97585 71.6965 3.16288 71.1378 3.53693C70.5791 3.90625 70.1458 4.44602 69.8381 5.15625C69.5303 5.86174 69.3764 6.71875 69.3764 7.72727C69.3764 8.7642 69.5303 9.63542 69.8381 10.3409C70.1506 11.0464 70.5862 11.5791 71.1449 11.9389C71.7036 12.2988 72.3499 12.4787 73.0838 12.4787C73.4957 12.4787 73.8769 12.4242 74.2273 12.3153C74.5824 12.2064 74.8973 12.0478 75.1719 11.8395C75.4465 11.6264 75.6738 11.3684 75.8537 11.0653C76.0384 10.7623 76.1662 10.4167 76.2372 10.0284L79.348 10.0426C79.2675 10.7102 79.0663 11.3542 78.7443 11.9744C78.4271 12.59 77.9986 13.1416 77.4588 13.6293C76.9238 14.1122 76.2846 14.4957 75.5412 14.7798C74.8026 15.0592 73.9669 15.1989 73.0341 15.1989C71.7367 15.1989 70.5767 14.9053 69.554 14.3182C68.536 13.7311 67.7311 12.8812 67.1392 11.7685C66.5521 10.6558 66.2585 9.30871 66.2585 7.72727C66.2585 6.1411 66.5568 4.79167 67.1534 3.67898C67.75 2.56629 68.5597 1.71875 69.5824 1.13636C70.6051 0.549242 71.7557 0.255681 73.0341 0.255681C73.8769 0.255681 74.6581 0.374053 75.3778 0.610795C76.1023 0.847538 76.7438 1.19318 77.3026 1.64773C77.8613 2.09754 78.3158 2.64915 78.6662 3.30256C79.0213 3.95597 79.2486 4.70407 79.348 5.54688ZM81.5533 15V0.454545H91.3544V2.99006H84.6286V6.45597H90.8501V8.99148H84.6286V12.4645H91.3828V15H81.5533ZM93.7994 15V0.454545H96.8746V12.4645H103.11V15H93.7994Z" fill="white"/>
</svg>
